<?xml version="1.0" encoding="utf-8"?>
<!DOCTYPE svg PUBLIC "-//W3C//DTD SVG 20010904//EN" "http://www.w3.org/TR/2001/REC-SVG-20010904/DTD/svg10.dtd">
<svg version="1.0" width="234pt" height="68.25pt" viewBox="0 0 234 68.25" preserveAspectRatio="xMidYMid meet" xmlns="http://www.w3.org/2000/svg">
  <g transform="translate(0,68.25)scale(.075,.075)">
    <path id="path1" d="M 315 -834 c -45 7 -188 35 -208 40 -15 5 -17 24 -17 217 0 201 1 215 24 262 31 67 101 136 195 191 108 63 109 63 194 13 86 -52 156 -115 197 -177 l 30 -45 0 -228 c 0 -208 -2 -228 -18 -233 -96 -30 -317 -52 -397 -40 z m 298 143 c 24 19 24 236 1 303 -27 79 -140 188 -196 188 -57 0 -174 -95 -203 -164 -35 -84 -44 -286 -15 -321 17 -20 46 -23 231 -21 124 1 170 4 182 15 z M 971 -590 c -154 32 -194 226 -62 304 25 14 52 19 107 19 41 0 76 -2 78 -4 2 -2 6 -20 10 -39 l 6 -36 -68 4 c -65 4 -70 3 -90 -23 -32 -41 -29 -90 8 -127 29 -29 34 -30 95 -26 l 64 4 -2 -38 c -2 -31 -6 -38 -23 -38 -12 0 -34 -2 -50 -4 -16 -3 -49 0 -73 4 z M 2176 -452 c -4 75 -10 147 -13 160 -5 21 -2 22 46 22 l 51 0 1 -78 c 0 -42 4 -114 7 -160 l 7 -82 -46 0 -46 0 -7 138 z M 2326 -468 c -4 68 -9 140 -12 161 l -6 37 51 0 51 0 1 -88 c 0 -48 4 -120 8 -160 l 7 -72 -47 0 -47 0 -6 122 z M 1745 -561 c -23 5 -31 12 -33 32 -2 21 -7 26 -23 22 -16 -5 -19 0 -19 31 0 25 4 36 15 36 12 0 15 15 15 74 0 55 4 77 16 87 14 12 108 19 117 8 2 -2 7 -18 10 -36 6 -30 4 -32 -21 -30 -26 2 -27 0 -30 -51 l -3 -52 30 0 c 29 0 31 -3 31 -36 0 -33 -2 -36 -25 -32 -23 5 -25 2 -25 -28 0 -36 -2 -36 -55 -25 z M 1260 -513 c -68 7 -77 11 -82 43 -3 16 -4 30 -4 30 1 0 22 -7 49 -15 52 -16 80 -11 75 13 -2 10 -23 20 -56 27 -82 19 -119 64 -92 115 18 34 120 51 120 20 0 -5 3 -16 7 -26 4 -11 3 -15 -4 -11 -16 10 -43 -3 -43 -19 0 -10 57 -44 75 -44 2 0 1 25 -2 55 l -6 55 45 0 45 0 7 -95 c 7 -100 0 -130 -31 -138 -36 -10 -69 -13 -103 -10 z M 1510 -509 c -73 16 -78 65 -13 125 58 53 48 69 -33 50 -29 -7 -30 -6 -26 27 4 31 7 35 40 39 88 12 152 -17 152 -67 0 -16 -15 -36 -45 -62 -25 -20 -45 -41 -45 -46 0 -5 22 -7 49 -5 l 50 5 -6 -31 c -3 -17 -6 -32 -7 -32 -6 -7 -89 -9 -116 -3 z M 1985 -513 c -45 10 -72 25 -87 51 -26 44 -31 86 -14 125 22 53 55 70 137 70 38 0 72 -2 74 -5 3 -2 8 -19 11 -37 7 -31 6 -33 -17 -26 -44 14 -101 9 -116 -11 -7 -10 -13 -21 -13 -26 0 -4 38 -8 85 -8 l 85 0 0 -36 c 0 -41 -44 -94 -78 -94 -11 0 -26 -2 -34 -4 -7 -2 -22 -2 -33 1 z m 54 72 c 10 17 6 19 -29 23 -41 4 -44 1 -34 -26 8 -22 51 -20 63 3 z M 2553 -511 c -59 7 -58 6 -67 45 -6 25 -5 28 11 21 35 -14 86 -23 100 -18 20 8 12 37 -12 41 -88 15 -135 45 -135 86 0 41 31 68 77 70 46 1 48 0 57 -30 5 -17 2 -20 -16 -20 -37 1 -30 -35 10 -51 l 32 -13 0 55 0 55 44 0 44 0 4 -92 c 3 -51 1 -103 -3 -115 -11 -31 -64 -43 -146 -34 z M 2920 -512 c -14 2 -33 11 -42 19 -16 15 -18 15 -18 0 0 -14 -10 -17 -50 -17 l -50 0 0 82 c 0 46 -3 100 -6 120 l -7 38 52 0 51 0 0 -63 c 0 -68 18 -107 49 -107 35 0 44 26 38 100 l -6 70 50 0 49 0 0 -103 c 0 -87 -3 -106 -18 -119 -19 -17 -55 -25 -92 -20 z " />
  </g>
</svg>